<?xml version="1.0" encoding="UTF-8"?>
<svg version="1.1" xmlns="http://www.w3.org/2000/svg" width="154" height="159">
<path d="M0 0 C1.22408569 0.32915405 2.44817139 0.65830811 3.70935059 0.99743652 C6.27865851 1.68980137 8.84698475 2.38494594 11.4140625 3.08544922 C14.70522573 3.98349591 17.99870048 4.87267447 21.29312897 5.75865936 C24.44621552 6.60699848 27.59813444 7.45963735 30.75 8.3125 C32.52485779 8.79221252 32.52485779 8.79221252 34.33557129 9.28161621 C35.42430542 9.57862427 36.51303955 9.87563232 37.63476562 10.18164062 C38.59499634 10.4428772 39.55522705 10.70411377 40.54455566 10.9732666 C42.84375 11.65625 42.84375 11.65625 44.84375 12.65625 C44.84375 13.31625 44.84375 13.97625 44.84375 14.65625 C40.55317891 15.82697186 36.26111967 16.99214137 31.96875 18.15625 C30.74542969 18.49011719 29.52210938 18.82398437 28.26171875 19.16796875 C26.51181641 19.64169922 26.51181641 19.64169922 24.7265625 20.125 C23.10838623 20.56489258 23.10838623 20.56489258 21.45751953 21.01367188 C18.84375 21.65625 18.84375 21.65625 16.84375 21.65625 C16.72027295 26.13702499 16.70982553 30.61143697 16.71875 35.09375 C16.68265625 36.35380859 16.6465625 37.61386719 16.609375 38.91210938 C16.64574282 46.20030667 16.64574282 46.20030667 20.05541992 52.42089844 C22.68970839 54.80586462 22.68970839 54.80586462 25.44555664 56.7722168 C29.75127154 60.15480886 31.14213143 64.55139429 32.84375 69.65625 C33.7925 70.130625 34.74125 70.605 35.71875 71.09375 C39.11394087 72.79134544 40.10276375 73.34837613 41.84375 76.65625 C42.28813327 79.97459221 42.26195031 83.25052614 42.21875 86.59375 C42.23035156 87.48771484 42.24195313 88.38167969 42.25390625 89.30273438 C42.23207944 94.20285256 42.11287264 97.73483763 38.84375 101.65625 C35.84375 103.65625 35.84375 103.65625 32.84375 103.65625 C32.67552734 104.56503906 32.67552734 104.56503906 32.50390625 105.4921875 C30.41363986 114.3724042 25.05169442 120.8737897 17.65625 126.15625 C12.78885584 128.75219355 8.44415734 129.90320537 2.93701172 129.97851562 C1.79497284 129.99773071 0.65293396 130.0169458 -0.52371216 130.03674316 C-1.74565277 130.04524292 -2.96759338 130.05374268 -4.2265625 130.0625 C-5.49917938 130.07390015 -6.77179626 130.08530029 -8.08297729 130.0970459 C-10.77453879 130.11591569 -13.46565617 130.12972362 -16.15722656 130.13671875 C-19.57339391 130.1476411 -22.98794778 130.19561733 -26.40361214 130.25266266 C-29.69863588 130.29933446 -32.99375488 130.30284281 -36.2890625 130.3125 C-37.49885773 130.3371936 -38.70865295 130.36188721 -39.95510864 130.3873291 C-49.52795071 130.33783688 -57.35549616 127.89814481 -64.62600708 121.47399902 C-68.99515089 117.02414095 -71.13839503 112.64025166 -73.16015625 106.80859375 C-74.65185919 103.58534543 -77.172682 102.43369477 -80.15625 100.65625 C-83.08932218 96.04615066 -83.6216835 92.00187491 -83.53125 86.65625 C-83.54285156 85.97046875 -83.55445312 85.2846875 -83.56640625 84.578125 C-83.53955498 79.88810262 -82.6912003 76.60216321 -80.15625 72.65625 C-79.2075 72.24375 -78.25875 71.83125 -77.28125 71.40625 C-73.13495424 69.08432437 -72.36131351 66.45196615 -70.4375 62.234375 C-67.44189462 56.20663246 -64.41342034 53.15911814 -58.15625 50.65625 C-58.15625 41.41625 -58.15625 32.17625 -58.15625 22.65625 C-64.89245905 20.089804 -64.89245905 20.089804 -71.65625 18.46875 C-72.5121875 18.31019531 -73.368125 18.15164062 -74.25 17.98828125 C-75.19359375 17.82392578 -75.19359375 17.82392578 -76.15625 17.65625 C-76.15625 18.97625 -76.15625 20.29625 -76.15625 21.65625 C-75.3828125 22.3059375 -75.3828125 22.3059375 -74.59375 22.96875 C-73.15625 24.65625 -73.15625 24.65625 -73.40625 28.09375 C-73.79894759 29.95906353 -74.20805265 31.82560481 -74.765625 33.6484375 C-75.31445981 36.46944845 -74.3329182 38.70869943 -73.578125 41.421875 C-72.87057781 45.16925455 -73.15801314 48.97726417 -74.15625 52.65625 C-77.22515187 54.19070094 -79.85719266 53.20609289 -83.15625 52.65625 C-83.71893274 44.57550072 -82.70192287 37.99346358 -79.15625 30.65625 C-78.49625 29.99625 -77.83625 29.33625 -77.15625 28.65625 C-77.52306658 25.72171739 -78.02062246 24.79187754 -80.15625 22.65625 C-80.28125 19.53125 -80.28125 19.53125 -80.15625 16.65625 C-82.63125 15.66625 -82.63125 15.66625 -85.15625 14.65625 C-85.15625 13.99625 -85.15625 13.33625 -85.15625 12.65625 C-71.43811421 8.50773838 -57.64711874 4.59652221 -43.8147583 0.84710693 C-42.13662207 0.38949957 -40.46010513 -0.07409145 -38.78533936 -0.54388428 C-36.39498848 -1.21277313 -33.99945234 -1.8587391 -31.6015625 -2.5 C-30.8980365 -2.70170807 -30.1945105 -2.90341614 -29.46966553 -3.11123657 C-19.36037017 -5.74337205 -9.81450673 -2.68949532 0 0 Z M-59.69140625 61.16015625 C-60.19542969 61.83949219 -60.69945312 62.51882812 -61.21875 63.21875 C-61.97865234 64.21068359 -61.97865234 64.21068359 -62.75390625 65.22265625 C-66.74084213 72.14148927 -66.49180815 79.17970579 -66.46875 86.96875 C-66.48486328 88.04576172 -66.50097656 89.12277344 -66.51757812 90.23242188 C-66.52371444 100.36347043 -65.13569803 108.55618413 -57.9921875 116.03125 C-52.98342266 120.46453973 -47.58447501 121.76096036 -41.08740234 121.83325195 C-40.07890228 121.84608719 -39.07040222 121.85892242 -38.03134155 121.87214661 C-36.4032103 121.88322701 -36.4032103 121.88322701 -34.7421875 121.89453125 C-33.05496078 121.90663887 -33.05496078 121.90663887 -31.33364868 121.91899109 C-28.95145198 121.93281913 -26.56923556 121.943547 -24.18701172 121.95141602 C-20.56569205 121.96858669 -16.94529548 122.01248115 -13.32421875 122.05664062 C-11.00521502 122.06677187 -8.68620355 122.07528662 -6.3671875 122.08203125 C-5.29391205 122.09953934 -4.2206366 122.11704742 -3.11483765 122.13508606 C4.45038668 122.11354402 11.86720985 121.14932341 17.75430298 115.97798157 C25.4544955 107.73676723 26.02371659 97.97868598 26.03125 87.28125 C26.04349609 86.37375 26.05574219 85.46625 26.06835938 84.53125 C26.08408912 77.2536192 25.45710737 70.5315322 21.46875 64.21875 C20.86933594 63.23068359 20.86933594 63.23068359 20.2578125 62.22265625 C18.47653882 60.24947739 17.48494683 59.86167642 14.84375 59.65625 C12.68712055 60.33964774 12.68712055 60.33964774 10.46875 61.46875 C-6.76619033 68.67699567 -30.38603944 67.65412172 -48.15625 62.65625 C-49.41365935 62.13874257 -50.66387833 61.60341572 -51.90625 61.05078125 C-56.06807967 59.09639878 -56.06807967 59.09639878 -59.69140625 61.16015625 Z " fill="#1B94AE" transform="translate(103.15625,17.34375)"/>
<path d="M0 0 C1.65 0 3.3 0 5 0 C4.33333333 1.33333333 3.66666667 2.66666667 3 4 C0.4375 4.625 0.4375 4.625 -2 5 C-1.505 7.475 -1.505 7.475 -1 10 C-6.96260558 15.48559713 -16.03824142 14.13466339 -23.62109375 14.09765625 C-24.72099136 14.0962413 -25.82088898 14.09482635 -26.95411682 14.09336853 C-30.44860617 14.08779503 -33.94303019 14.07524739 -37.4375 14.0625 C-39.8144522 14.05748158 -42.1914054 14.05291927 -44.56835938 14.04882812 C-50.37892834 14.03783428 -56.1894595 14.02112262 -62 14 C-61.67 12.68 -61.34 11.36 -61 10 C-59.70900391 9.98541748 -58.41800781 9.97083496 -57.08789062 9.95581055 C-52.27186176 9.8975869 -47.45628871 9.82035586 -42.640625 9.73754883 C-40.5612735 9.7044124 -38.48183448 9.67634576 -36.40234375 9.65356445 C-33.40326854 9.61981049 -30.40498713 9.5674844 -27.40625 9.51171875 C-26.48509399 9.50532883 -25.56393799 9.4989389 -24.61486816 9.49235535 C-15.95262533 9.29758074 -10.21733161 6.86750272 -3 2 C-2.01 2 -1.02 2 0 2 C0 1.34 0 0.68 0 0 Z " fill="#1A94AE" transform="translate(125,131)"/>
<path d="M0 0 C2.75 0.375 2.75 0.375 5 2.8125 C8.29296093 5.88094087 10.22383011 6.25383369 14.6015625 6.515625 C17.66643045 6.31501546 19.4004397 5.30993201 21.75 3.375 C22.245 2.7975 22.74 2.22 23.25 1.625 C23.745 1.2125 24.24 0.8 24.75 0.375 C27.4375 0.6875 27.4375 0.6875 29.75 1.375 C30.84659065 4.06663159 30.84578609 5.13553477 29.75 7.875 C26.53468803 11.89413996 21.94642855 14.72544643 16.75 15.375 C10.57077586 15.98080629 6.00335715 14.49861777 0.75 11.375 C-2.03794192 8.72305525 -3.12870151 7.4424267 -3.5625 3.625 C-3.14439706 0.61465883 -2.99510373 0.49918396 0 0 Z " fill="#268EA7" transform="translate(69.25,116.625)"/>
<path d="M0 0 C3.0216321 0.73251687 4.80104733 2.27158096 6.93359375 4.46875 C8.48383839 7.56923928 8.2235139 10.04769218 7.93359375 13.46875 C6.39521768 16.41730414 5.27283085 18.01581386 2.0625 19.1015625 C-1.51287843 19.73688494 -3.56741865 19.68570113 -6.94140625 18.21875 C-9.9688394 15.72556976 -10.98829888 14.0601344 -11.50390625 10.15625 C-10.66955437 3.1238556 -6.99058442 -0.52858861 0 0 Z " fill="#1A94B0" transform="translate(64.06640625,90.53125)"/>
<path d="M0 0 C1.98 0.33 3.96 0.66 6 1 C6 1.66 6 2.32 6 3 C1.70942891 4.17072186 -2.58263033 5.33589137 -6.875 6.5 C-8.09832031 6.83386719 -9.32164062 7.16773438 -10.58203125 7.51171875 C-12.33193359 7.98544922 -12.33193359 7.98544922 -14.1171875 8.46875 C-15.19597168 8.76201172 -16.27475586 9.05527344 -17.38623047 9.35742188 C-20 10 -20 10 -22 10 C-22.12347705 14.48077499 -22.13392447 18.95518697 -22.125 23.4375 C-22.16109375 24.69755859 -22.1971875 25.95761719 -22.234375 27.25585938 C-22.19715518 34.54232056 -22.19715518 34.54232056 -18.79272461 40.76464844 C-16.16190681 43.14936514 -16.16190681 43.14936514 -13.41040039 45.1159668 C-9.78058837 47.95312464 -8.55345494 50.7095054 -7 55 C-7.33 55.99 -7.66 56.98 -8 58 C-8.433125 57.0409375 -8.433125 57.0409375 -8.875 56.0625 C-9.82823451 53.84793921 -9.82823451 53.84793921 -12 53 C-12.72693904 51.02111039 -13.39816251 49.02045442 -14 47 C-15.485 47.495 -15.485 47.495 -17 48 C-16.731875 48.804375 -16.46375 49.60875 -16.1875 50.4375 C-15.5996875 52.2009375 -15.5996875 52.2009375 -15 54 C-14.74734375 54.62455078 -14.4946875 55.24910156 -14.234375 55.89257812 C-11.76006912 62.33911526 -11.64406523 68.21713836 -11.8125 75.0625 C-11.83280273 76.64708008 -11.83280273 76.64708008 -11.85351562 78.26367188 C-11.8885291 80.84299809 -11.93763325 83.42121494 -12 86 C-12.33 86 -12.66 86 -13 86 C-13.01981934 85.40574219 -13.03963867 84.81148438 -13.06005859 84.19921875 C-13.15623993 81.46575581 -13.26553557 78.73296197 -13.375 76 C-13.4059375 75.06542969 -13.436875 74.13085938 -13.46875 73.16796875 C-13.82891335 64.58407568 -14.89047034 58.15334152 -20 51 C-20 50.34 -20 49.68 -20 49 C-24.48525648 49.656379 -28.66914029 50.70074209 -33 52 C-33.33 51.34 -33.66 50.68 -34 50 C-31.03 49.01 -28.06 48.02 -25 47 C-25 45.68 -25 44.36 -25 43 C-24.01 43 -23.02 43 -22 43 C-22 43.66 -22 44.32 -22 45 C-21.34 45 -20.68 45 -20 45 C-21.08784968 41.75016865 -21.08784968 41.75016865 -23 39 C-23.15858842 36.85613343 -23.25129298 34.70733162 -23.31640625 32.55859375 C-23.35830078 31.25341797 -23.40019531 29.94824219 -23.44335938 28.60351562 C-23.48317608 27.2148467 -23.52288825 25.82617478 -23.5625 24.4375 C-23.60567989 23.04490817 -23.649294 21.65232972 -23.69335938 20.25976562 C-23.79985876 16.83995199 -23.90186923 13.42006237 -24 10 C-26.31 10.33 -28.62 10.66 -31 11 C-31 10.01 -31 9.02 -31 8 C-27.92090233 7.13003414 -24.83621369 6.28184148 -21.75 5.4375 C-20.87730469 5.19064453 -20.00460938 4.94378906 -19.10546875 4.68945312 C-17.83896484 4.34624023 -17.83896484 4.34624023 -16.546875 3.99609375 C-15.77182617 3.78138428 -14.99677734 3.5666748 -14.19824219 3.34545898 C-11.78880659 2.96681045 -10.31658232 3.32736551 -8 4 C-5.61954581 3.69795979 -5.61954581 3.69795979 -3.25 3.0625 C-2.05117187 2.77052734 -2.05117187 2.77052734 -0.828125 2.47265625 C-0.22484375 2.31667969 0.3784375 2.16070313 1 2 C0.505 1.01 0.505 1.01 0 0 Z " fill="#3793A4" transform="translate(142,29)"/>
<path d="M0 0 C-5.76323254 2.25374117 -11.52746533 4.07763927 -17.5 5.6875 C-18.32242187 5.91244141 -19.14484375 6.13738281 -19.9921875 6.36914062 C-21.99387823 6.91611425 -23.99681088 7.45853969 -26 8 C-25.34 8.5775 -24.68 9.155 -24 9.75 C-22 12 -22 12 -22 16 C-21.2265625 16.6496875 -21.2265625 16.6496875 -20.4375 17.3125 C-19 19 -19 19 -19.25 22.4375 C-19.64269759 24.30281353 -20.05180265 26.16935481 -20.609375 27.9921875 C-21.15820981 30.81319845 -20.1766682 33.05244943 -19.421875 35.765625 C-18.71432781 39.51300455 -19.00176314 43.32101417 -20 47 C-23.06890187 48.53445094 -25.70094266 47.54984289 -29 47 C-29.56268274 38.91925072 -28.54567287 32.33721358 -25 25 C-24.34 24.34 -23.68 23.68 -23 23 C-23.36681658 20.06546739 -23.86437246 19.13562754 -26 17 C-26.125 13.875 -26.125 13.875 -26 11 C-28.475 10.01 -28.475 10.01 -31 9 C-31 8.34 -31 7.68 -31 7 C-27.08370163 5.8529053 -23.16689868 4.70754303 -19.25 3.5625 C-18.13882812 3.23701172 -17.02765625 2.91152344 -15.8828125 2.57617188 C-14.81289063 2.26357422 -13.74296875 1.95097656 -12.640625 1.62890625 C-11.65610352 1.34088135 -10.67158203 1.05285645 -9.65722656 0.75610352 C-8.7803418 0.50658936 -7.90345703 0.2570752 -7 0 C-5.92830566 -0.32883179 -5.92830566 -0.32883179 -4.83496094 -0.66430664 C-3 -1 -3 -1 0 0 Z " fill="#4199AB" transform="translate(49,23)"/>
<path d="M0 0 C3.58552881 1.63687185 4.79315055 2.68972583 7 6 C7.25 8.5625 7.25 8.5625 7 11 C6.34 11.66 5.68 12.32 5 13 C3.0625 12.875 3.0625 12.875 1 12 C0.525625 11.319375 0.05125 10.63875 -0.4375 9.9375 C-0.953125 9.298125 -1.46875 8.65875 -2 8 C-4.62625139 7.66574265 -4.62625139 7.66574265 -7 8 C-7.2475 8.639375 -7.495 9.27875 -7.75 9.9375 C-9 12 -9 12 -11 12.875 C-11.99 12.936875 -11.99 12.936875 -13 13 C-13.66 12.34 -14.32 11.68 -15 11 C-15 6.82707905 -14.23571587 5.26446171 -11.4375 2.125 C-7.59345438 -0.73955323 -4.6847978 -0.59489496 0 0 Z " fill="#2690A7" transform="translate(107,94)"/>
<path d="M0 0 C0.33 0 0.66 0 1 0 C1 3.96 1 7.92 1 12 C1.66 11.01 2.32 10.02 3 9 C3.66 9 4.32 9 5 9 C5.33 7.68 5.66 6.36 6 5 C7.32 5.33 8.64 5.66 10 6 C9.34 6 8.68 6 8 6 C7.814375 6.92619141 7.814375 6.92619141 7.625 7.87109375 C5.8195827 15.28458853 2.39178781 19.69786187 -3 25 C-3.99 23.02 -3.99 23.02 -5 21 C-4.34 21 -3.68 21 -3 21 C-2.67 20.34 -2.34 19.68 -2 19 C-1.34 19.33 -0.68 19.66 0 20 C-0.495 18.515 -0.495 18.515 -1 17 C-0.01 16.67 0.98 16.34 2 16 C0.35 16 -1.3 16 -3 16 C-3 16.66 -3 17.32 -3 18 C-4.4160599 18.79275148 -5.83287553 19.58415312 -7.25 20.375 C-8.03890625 20.81585938 -8.8278125 21.25671875 -9.640625 21.7109375 C-10.41921875 22.13632813 -11.1978125 22.56171875 -12 23 C-12.59516418 23.35190399 -13.19032837 23.70380798 -13.80352783 24.06637573 C-16.51172705 25.21751279 -18.56266328 25.24053824 -21.50292969 25.22705078 C-22.60376892 25.22689972 -23.70460815 25.22674866 -24.83880615 25.22659302 C-26.02121887 25.21627045 -27.20363159 25.20594788 -28.421875 25.1953125 C-30.24455902 25.19106766 -30.24455902 25.19106766 -32.10406494 25.18673706 C-35.98614335 25.17553954 -39.86799129 25.15043534 -43.75 25.125 C-46.38150709 25.11496966 -49.01301779 25.10584391 -51.64453125 25.09765625 C-58.09643284 25.07560157 -64.54819995 25.04212804 -71 25 C-71 24.67 -71 24.34 -71 24 C-70.37074615 23.99635437 -69.74149231 23.99270874 -69.09317017 23.98895264 C-62.50591949 23.94693463 -55.91935309 23.87745491 -49.33251953 23.79248047 C-46.87881333 23.7643661 -44.42501816 23.74310447 -41.97119141 23.72900391 C-38.43085496 23.70744278 -34.89157749 23.66072262 -31.3515625 23.609375 C-30.26573883 23.60814636 -29.17991516 23.60691772 -28.06118774 23.60565186 C-20.69125205 23.46595975 -13.26032257 22.53531367 -7.38442993 17.65936279 C-2.87431518 12.6377123 -0.8042517 6.59486393 0 0 Z " fill="#3491A4" transform="translate(128,115)"/>
<path d="M0 0 C0.99 0 1.98 0 3 0 C3 0.99 3 1.98 3 3 C3.99 3 4.98 3 6 3 C5.67 4.32 5.34 5.64 5 7 C6.32 6.34 7.64 5.68 9 5 C9.33 5.99 9.66 6.98 10 8 C10.66 7.34 11.32 6.68 12 6 C15.2578125 5.8046875 15.2578125 5.8046875 19.125 5.875 C21.04699219 5.90207031 21.04699219 5.90207031 23.0078125 5.9296875 C24.48894531 5.96449219 24.48894531 5.96449219 26 6 C25.67 7.65 25.34 9.3 25 11 C18.59773468 13.498445 13.56463227 13.82430546 7.125 11.375 C4.82421875 10.2890625 4.82421875 10.2890625 3 9 C1.9375 5.75 1.9375 5.75 2 3 C1.34 3 0.68 3 0 3 C0 2.01 0 1.02 0 0 Z " fill="#1A95AF" transform="translate(67,119)"/>
<path d="M0 0 C8.53492427 1.3873485 16.83342508 3.40925614 25.1875 5.625 C27.0447168 6.11226562 27.0447168 6.11226562 28.93945312 6.609375 C31.96062299 7.4025779 34.98075248 8.19951708 38 9 C37.67 9.99 37.34 10.98 37 12 C31.63871105 11.39076262 26.55735135 10.17231679 21.3359375 8.82421875 C16.62806019 7.66103127 11.88239341 6.70328058 7.12890625 5.74609375 C4.26161667 5.062383 1.69762382 4.17485299 -1 3 C-0.67 2.01 -0.34 1.02 0 0 Z " fill="#34A3BE" transform="translate(29,31)"/>
<path d="M0 0 C3.0216321 0.73251687 4.80104733 2.27158096 6.93359375 4.46875 C8.48383839 7.56923928 8.2235139 10.04769218 7.93359375 13.46875 C6.39521768 16.41730414 5.27283085 18.01581386 2.0625 19.1015625 C-1.51287843 19.73688494 -3.56741865 19.68570113 -6.94140625 18.21875 C-9.9688394 15.72556976 -10.98829888 14.0601344 -11.50390625 10.15625 C-10.66955437 3.1238556 -6.99058442 -0.52858861 0 0 Z M-8.06640625 3.46875 C-9.69599727 6.72793205 -9.55486572 9.95042603 -9.06640625 13.46875 C-8.33955037 16.10499641 -8.33955037 16.10499641 -6.06640625 17.46875 C-3.03731206 17.79099406 -0.099826 17.69768734 2.93359375 17.46875 C3.84816378 11.90717552 4.25445772 7.793085 1.93359375 2.46875 C-3.24087401 2.05960241 -3.24087401 2.05960241 -8.06640625 3.46875 Z " fill="#2F90A2" transform="translate(64.06640625,90.53125)"/>
<path d="M0 0 C1.7074998 1.28062485 3.37373596 2.61767557 5 4 C5 4.66 5 5.32 5 6 C4.01 6.495 4.01 6.495 3 7 C3.268125 7.804375 3.53625 8.60875 3.8125 9.4375 C4.204375 10.613125 4.59625 11.78875 5 13 C5.25265625 13.62455078 5.5053125 14.24910156 5.765625 14.89257812 C8.23993088 21.33911526 8.35593477 27.21713836 8.1875 34.0625 C8.16719727 35.64708008 8.16719727 35.64708008 8.14648438 37.26367188 C8.1114709 39.84299809 8.06236675 42.42121494 8 45 C7.67 45 7.34 45 7 45 C6.98018066 44.40574219 6.96036133 43.81148437 6.93994141 43.19921875 C6.84376007 40.46575581 6.73446443 37.73296197 6.625 35 C6.5940625 34.06542969 6.563125 33.13085938 6.53125 32.16796875 C6.17108665 23.58407568 5.10952966 17.15334152 0 10 C0 9.34 0 8.68 0 8 C-4.48525648 8.656379 -8.66914029 9.70074209 -13 11 C-13.33 10.34 -13.66 9.68 -14 9 C-11.03 8.01 -8.06 7.02 -5 6 C-5 4.68 -5 3.36 -5 2 C-4.01 2 -3.02 2 -2 2 C-2 2.66 -2 3.32 -2 4 C-1.34 4 -0.68 4 0 4 C0 2.68 0 1.36 0 0 Z " fill="#3194A9" transform="translate(122,70)"/>
<path d="M0 0 C3.48354375 5.22531563 4.30934332 10.8131337 4 17 C3.34 17 2.68 17 2 17 C2 17.66 2 18.32 2 19 C0.35 19 -1.3 19 -3 19 C-3 13.72 -3 8.44 -3 3 C-2.01 2.67 -1.02 2.34 0 2 C0 1.34 0 0.68 0 0 Z " fill="#1E95AF" transform="translate(26,50)"/>
<path d="M0 0 C1 3 1 3 1 7 C2.98 6.01 4.96 5.02 7 4 C6.566875 5.0209375 6.566875 5.0209375 6.125 6.0625 C3.2168994 13.65587379 2.6060857 20.32542897 2.375 28.4375 C2.31699219 30.1071582 2.31699219 30.1071582 2.2578125 31.81054688 C2.16409034 34.54020476 2.07837706 37.26986563 2 40 C1.67 40 1.34 40 1 40 C1 30.1 1 20.2 1 10 C-1.31 10.66 -3.62 11.32 -6 12 C-5.38144369 10.3725363 -4.75492695 8.74809644 -4.125 7.125 C-3.77695312 6.22007813 -3.42890625 5.31515625 -3.0703125 4.3828125 C-2 2 -2 2 0 0 Z " fill="#3693A8" transform="translate(35,76)"/>
<path d="M0 0 C8.28915663 2.07228916 8.28915663 2.07228916 11 5 C11.375 7.5625 11.375 7.5625 11 10 C10.34 10.66 9.68 11.32 9 12 C7.0625 11.875 7.0625 11.875 5 11 C4.525625 10.34 4.05125 9.68 3.5625 9 C2.12113694 6.74724544 2.12113694 6.74724544 -0.6875 6.25 C-1.450625 6.1675 -2.21375 6.085 -3 6 C-3.33 5.01 -3.66 4.02 -4 3 C-3.01 2.67 -2.02 2.34 -1 2 C-0.67 1.34 -0.34 0.68 0 0 Z " fill="#1A96AF" transform="translate(103,95)"/>
<path d="M0 0 C0.71172363 0.18481934 1.42344727 0.36963867 2.15673828 0.56005859 C7.46543105 1.95015238 12.73703502 3.44633605 18 5 C18 5.66 18 6.32 18 7 C15.69 7 13.38 7 11 7 C11 6.67 11 6.34 11 6 C9.02 5.67 7.04 5.34 5 5 C5 4.34 5 3.68 5 3 C-3.39580724 1.53985961 -10.75919523 1.22083225 -18.81640625 4.265625 C-22.17998544 5.39684662 -25.47454558 5.67950414 -29 6 C-29 5.34 -29 4.68 -29 4 C-24.29449792 2.60380893 -19.58461428 1.26345188 -14.82421875 0.06640625 C-14.02330811 -0.13525146 -13.22239746 -0.33690918 -12.3972168 -0.54467773 C-7.97575793 -1.38448024 -4.32261262 -1.14656533 0 0 Z " fill="#3A96AA" transform="translate(90,14)"/>
<path d="M0 0 C0.99 0.33 1.98 0.66 3 1 C1.71034824 2.37562854 0.37310707 3.70766393 -1 5 C-1.66 5 -2.32 5 -3 5 C-3.11632513 8.41637953 -3.18728897 11.83224897 -3.25 15.25 C-3.28351562 16.21808594 -3.31703125 17.18617187 -3.3515625 18.18359375 C-3.53565377 23.76691743 -3.53565377 23.76691743 -1.1171875 28.6171875 C0.93096146 30.04897478 0.93096146 30.04897478 3.125 30.875 C5 32 5 32 6.3125 34.875 C6.98852259 37.94782994 6.87098108 39.10508448 6 42 C5.62875 40.7625 5.2575 39.525 4.875 38.25 C3.24563165 33.82742877 0.98795416 32.49247135 -3 30 C-5.93201201 25.3886196 -6.46545271 21.34675993 -6.375 16 C-6.38660156 15.31421875 -6.39820312 14.6284375 -6.41015625 13.921875 C-6.38324257 9.22095164 -5.51368412 5.96524819 -3 2 C-2.01 1.34 -1.02 0.68 0 0 Z " fill="#3793A6" transform="translate(26,88)"/>
<path d="M0 0 C0.88816406 0.0721875 1.77632812 0.144375 2.69140625 0.21875 C12.12085538 0.90383611 21.47344795 1.08271791 30.92797852 0.96289062 C36.39550295 0.91369757 41.59133946 1.18359841 47 2 C47 2.33 47 2.66 47 3 C31.29203787 5.29691899 15.4157383 4.75884475 0 1 C0 0.67 0 0.34 0 0 Z " fill="#3594AB" transform="translate(55,80)"/>
<path d="M0 0 C0.66 0 1.32 0 2 0 C2 9.57 2 19.14 2 29 C1.34 29 0.68 29 0 29 C0 29.66 0 30.32 0 31 C-1.3921875 31.680625 -1.3921875 31.680625 -2.8125 32.375 C-6.03921389 33.9421633 -6.03921389 33.9421633 -9 36 C-7.50958227 32.20620942 -5.30937488 30.31656242 -2 28 C-1.34 28 -0.68 28 0 28 C0 18.76 0 9.52 0 0 Z " fill="#3991A4" transform="translate(45,40)"/>
<path d="M0 0 C2 4 2 4 2.82421875 5.9296875 C5.21381898 11.31439752 8.29240621 14.50897539 13 18 C12.01 18.33 11.02 18.66 10 19 C7.3125 17.1875 7.3125 17.1875 5 15 C5 14.34 5 13.68 5 13 C1.535 14.485 1.535 14.485 -2 16 C-2.66 15.01 -3.32 14.02 -4 13 C-3.34 13 -2.68 13 -2 13 C-2 12.01 -2 11.02 -2 10 C-1.34 9.67 -0.68 9.34 0 9 C0 6.03 0 3.06 0 0 Z " fill="#2C94A9" transform="translate(37,118)"/>
<path d="M0 0 C1.75211782 0.25677589 3.50167936 0.53102953 5.25 0.8125 C6.22453125 0.96332031 7.1990625 1.11414062 8.203125 1.26953125 C11.1492807 2.03898812 12.79722506 2.91785322 15 5 C15 5.66 15 6.32 15 7 C9.34979382 6.39891424 4.33835539 4.92471317 -1 3 C-0.67 2.01 -0.34 1.02 0 0 Z " fill="#389DB3" transform="translate(29,31)"/>
<path d="M0 0 C-2.25403126 2.25403126 -3.08332064 2.38109524 -6.125 2.9375 C-9.35262008 3.58822986 -12.31184829 4.41675683 -15.375 5.625 C-19 7 -19 7 -22 7 C-22 6.01 -22 5.02 -22 4 C-18.89948553 3.1321772 -15.79413335 2.28313233 -12.6875 1.4375 C-11.80642578 1.19064453 -10.92535156 0.94378906 -10.01757812 0.68945312 C-9.17001953 0.46064453 -8.32246094 0.23183594 -7.44921875 -0.00390625 C-6.66893311 -0.21861572 -5.88864746 -0.4333252 -5.0847168 -0.65454102 C-3 -1 -3 -1 0 0 Z " fill="#3AA9C3" transform="translate(133,33)"/>
<path d="M0 0 C2.97 0.495 2.97 0.495 6 1 C6 1.66 6 2.32 6 3 C2.23479356 4.06279221 -1.53778123 5.09655193 -5.3125 6.125 C-6.9202832 6.57939453 -6.9202832 6.57939453 -8.56054688 7.04296875 C-9.58857422 7.32011719 -10.61660156 7.59726562 -11.67578125 7.8828125 C-12.62364502 8.14465332 -13.57150879 8.40649414 -14.5480957 8.67626953 C-17 9 -17 9 -20 7 C-13.07 5.35 -6.14 3.7 1 2 C0.67 1.34 0.34 0.68 0 0 Z " fill="#3E97AB" transform="translate(142,29)"/>
<path d="M0 0 C4.11742854 -0.47877076 5.58006317 -0.32165374 8.9375 2.25 C11 5 11 5 10.8125 7.3125 C10.544375 7.869375 10.27625 8.42625 10 9 C8.0625 8.6875 8.0625 8.6875 6 8 C5.67 7.01 5.34 6.02 5 5 C5.33 4.34 5.66 3.68 6 3 C4.35 3.33 2.7 3.66 1 4 C0.67 2.68 0.34 1.36 0 0 Z " fill="#1797AD" transform="translate(36,131)"/>
<path d="M0 0 C5.19209404 -0.21192221 9.126739 0.4087311 14 2 C14.33 1.34 14.66 0.68 15 0 C17.475 0.495 17.475 0.495 20 1 C17.04675595 3.95324405 14.80988743 3.93887642 10.6875 4.25 C6.39370873 3.95889551 3.83323743 2.87750405 0 1 C0 0.67 0 0.34 0 0 Z " fill="#2E91A5" transform="translate(72,128)"/>
<path d="M0 0 C0.66 0.33 1.32 0.66 2 1 C2.125 3.375 2.125 3.375 2 6 C1.34 6.66 0.68 7.32 0 8 C-1.9375 7.875 -1.9375 7.875 -4 7 C-5.04625409 5.70264493 -6.04701223 4.36733028 -7 3 C-7.99 2.34 -8.98 1.68 -10 1 C-7.36 1.33 -4.72 1.66 -2 2 C-2 2.99 -2 3.98 -2 5 C-1.34 5 -0.68 5 0 5 C0 3.35 0 1.7 0 0 Z " fill="#2A89A4" transform="translate(112,99)"/>
<path d="M0 0 C6.1112924 1.0388092 12.07704464 2.15730278 18 4 C18 4.33 18 4.66 18 5 C15.56212615 4.8590651 13.12482147 4.71245458 10.6875 4.5625 C9.65206055 4.50352539 9.65206055 4.50352539 8.59570312 4.44335938 C5.52838465 4.25072585 2.93031848 3.97677283 0 3 C0 2.01 0 1.02 0 0 Z " fill="#3293A8" transform="translate(124,24)"/>
<path d="M0 0 C1.32 0.66 2.64 1.32 4 2 C3.67 3.65 3.34 5.3 3 7 C1.68 7.33 0.36 7.66 -1 8 C-1.625 5.6875 -1.625 5.6875 -2 3 C-1.34 2.01 -0.68 1.02 0 0 Z " fill="#1E95B2" transform="translate(37,75)"/>
<path d="M0 0 C1.43836751 0.11458693 2.87570966 0.24209116 4.3125 0.375 C5.51326172 0.47941406 5.51326172 0.47941406 6.73828125 0.5859375 C9 1 9 1 12 3 C11.67 3.66 11.34 4.32 11 5 C8.69 4.67 6.38 4.34 4 4 C4 3.34 4 2.68 4 2 C2.68 1.67 1.36 1.34 0 1 C0 0.67 0 0.34 0 0 Z " fill="#2C9EB8" transform="translate(55,38)"/>
<path d="M0 0 C1.2065625 0.0309375 1.2065625 0.0309375 2.4375 0.0625 C3.0975 1.3825 3.7575 2.7025 4.4375 4.0625 C2.1275 3.4025 -0.1825 2.7425 -2.5625 2.0625 C-2.5625 3.0525 -2.5625 4.0425 -2.5625 5.0625 C-1.9025 5.0625 -1.2425 5.0625 -0.5625 5.0625 C-0.2325 6.7125 0.0975 8.3625 0.4375 10.0625 C-3.48191982 6.75548952 -3.48191982 6.75548952 -3.875 3.375 C-3.43648498 0.12998888 -3.3114813 0.08076784 0 0 Z " fill="#338D9E" transform="translate(69.5625,116.9375)"/>
<path d="M0 0 C0.33 0.66 0.66 1.32 1 2 C-2.3 2.66 -5.6 3.32 -9 4 C-8.34 3.34 -7.68 2.68 -7 2 C-7.33 1.34 -7.66 0.68 -8 0 C-4.71303767 -0.79953138 -3.28976808 -1.09658936 0 0 Z " fill="#279CB4" transform="translate(109,39)"/>
<path d="M0 0 C0.66 0.99 1.32 1.98 2 3 C-0.97 3.66 -3.94 4.32 -7 5 C-7 4.01 -7 3.02 -7 2 C-4.69 1.34 -2.38 0.68 0 0 Z " fill="#299EBC" transform="translate(118,35)"/>
<path d="M0 0 C1.32 0.33 2.64 0.66 4 1 C3.34 1 2.68 1 2 1 C1.01 4.3 0.02 7.6 -1 11 C-1.33 11 -1.66 11 -2 11 C-1.85892253 9.54119891 -1.71197585 8.08296449 -1.5625 6.625 C-1.48128906 5.81289062 -1.40007812 5.00078125 -1.31640625 4.1640625 C-1 2 -1 2 0 0 Z " fill="#3090A0" transform="translate(134,120)"/>
<path d="M0 0 C0.66 0 1.32 0 2 0 C3.33583899 4.84241633 4.25328119 8.93437617 4 14 C3.67 14 3.34 14 3 14 C2.566875 12.3603125 2.566875 12.3603125 2.125 10.6875 C1.18106796 6.95986155 1.18106796 6.95986155 -1 4 C-0.625 1.8125 -0.625 1.8125 0 0 Z " fill="#3A92A9" transform="translate(26,53)"/>
<path d="M0 0 C0 0.66 0 1.32 0 2 C-3.50776784 3.60355101 -6.14354879 4.22036864 -10 4 C-10 3.34 -10 2.68 -10 2 C-3.375 0 -3.375 0 0 0 Z " fill="#3F96AB" transform="translate(60,19)"/>
<path d="M0 0 C1.31611677 0.95336021 2.62778961 1.91285774 3.9375 2.875 C4.66839844 3.40867188 5.39929687 3.94234375 6.15234375 4.4921875 C8 6 8 6 9 8 C4.75153925 7.52794881 2.73180712 5.11122478 0 2 C0 1.34 0 0.68 0 0 Z " fill="#3D95A9" transform="translate(41,129)"/>
<path d="M0 0 C0 3 0 6 0 9 C0.66 9.33 1.32 9.66 2 10 C0.68 9.67 -0.64 9.34 -2 9 C-2.6875 6.75 -2.6875 6.75 -3 4 C-1.5625 1.6875 -1.5625 1.6875 0 0 Z " fill="#378798" transform="translate(95,97)"/>
<path d="M0 0 C2.475 0.99 2.475 0.99 5 2 C2.09907498 3.93395001 1.10325263 4.30131941 -2.1875 4.625 C-3.445625 4.74875 -4.70375 4.8725 -6 5 C-5.38125 4.731875 -4.7625 4.46375 -4.125 4.1875 C-1.7004767 3.04443152 -1.7004767 3.04443152 0 0 Z " fill="#269BB4" transform="translate(94,41)"/>
<path d="M0 0 C0.66 0 1.32 0 2 0 C2.33 1.65 2.66 3.3 3 5 C1.02 5.99 1.02 5.99 -1 7 C-0.67 4.69 -0.34 2.38 0 0 Z " fill="#1695B0" transform="translate(35,122)"/>
<path d="M0 0 C1.32 0.66 2.64 1.32 4 2 C3.34 2 2.68 2 2 2 C1.34 3.32 0.68 4.64 0 6 C-0.99 6 -1.98 6 -3 6 C-3 5.34 -3 4.68 -3 4 C-2.34 4 -1.68 4 -1 4 C-0.67 2.68 -0.34 1.36 0 0 Z " fill="#228CA3" transform="translate(98,100)"/>
<path d="M0 0 C3 1.75 3 1.75 6 4 C6 5.32 6 6.64 6 8 C5.01 8.33 4.02 8.66 3 9 C3 7.02 3 5.04 3 3 C2.01 2.67 1.02 2.34 0 2 C0 1.34 0 0.68 0 0 Z " fill="#4DA4B7" transform="translate(21,30)"/>
<path d="" fill="#FFFFFF" transform="translate(0,0)"/>
<path d="" fill="#FFFFFF" transform="translate(0,0)"/>
<path d="" fill="#FFFFFF" transform="translate(0,0)"/>
<path d="" fill="#FFFFFF" transform="translate(0,0)"/>
<path d="" fill="#FFFFFF" transform="translate(0,0)"/>
<path d="" fill="#FFFFFF" transform="translate(0,0)"/>
<path d="" fill="#FFFFFF" transform="translate(0,0)"/>
<path d="" fill="#FFFFFF" transform="translate(0,0)"/>
<path d="" fill="#FFFFFF" transform="translate(0,0)"/>
<path d="" fill="#FFFFFF" transform="translate(0,0)"/>
<path d="" fill="#FFFFFF" transform="translate(0,0)"/>
<path d="" fill="#FEFFFF" transform="translate(0,0)"/>
<path d="" fill="#FFFFFF" transform="translate(0,0)"/>
<path d="" fill="#FFFFFF" transform="translate(0,0)"/>
<path d="" fill="#FFFFFF" transform="translate(0,0)"/>
<path d="" fill="#FFFFFF" transform="translate(0,0)"/>
<path d="" fill="#FFFFFF" transform="translate(0,0)"/>
<path d="" fill="#FFFFFF" transform="translate(0,0)"/>
<path d="" fill="#FFFFFF" transform="translate(0,0)"/>
<path d="" fill="#FFFFFF" transform="translate(0,0)"/>
<path d="" fill="#FFFFFF" transform="translate(0,0)"/>
<path d="" fill="#FFFFFF" transform="translate(0,0)"/>
<path d="" fill="#FFFFFF" transform="translate(0,0)"/>
<path d="" fill="#FFFFFF" transform="translate(0,0)"/>
<path d="" fill="#FFFFFF" transform="translate(0,0)"/>
<path d="" fill="#FFFFFF" transform="translate(0,0)"/>
<path d="" fill="#FFFFFF" transform="translate(0,0)"/>
<path d="" fill="#FFFFFF" transform="translate(0,0)"/>
<path d="" fill="#FFFFFF" transform="translate(0,0)"/>
<path d="" fill="#FFFFFF" transform="translate(0,0)"/>
<path d="" fill="#FFFFFF" transform="translate(0,0)"/>
<path d="" fill="#FFFFFF" transform="translate(0,0)"/>
<path d="" fill="#FFFFFF" transform="translate(0,0)"/>
<path d="" fill="#FFFFFF" transform="translate(0,0)"/>
<path d="" fill="#FFFFFF" transform="translate(0,0)"/>
<path d="" fill="#FFFFFF" transform="translate(0,0)"/>
<path d="" fill="#FFFFFF" transform="translate(0,0)"/>
<path d="" fill="#FFFFFF" transform="translate(0,0)"/>
</svg>
